<svg width="500" height="500" viewBox="0 0 500 500" fill="none" xmlns="http://www.w3.org/2000/svg">
<rect width="500" height="500"/>
<path d="M172 155L184.5 255.5C187.221 274 193.5 308 219.5 328.5C245.5 349 252 355.5 252 355.5C252 355.5 260.5 350.5 282.5 328.5C304.5 306.5 308.425 289.5 313.5 255.5L314.321 250L328.5 155L252 142L172 155Z" fill="white" fill-opacity="0.85"/>
<path d="M252 215.5L252 255.5C252 278 252 255.5 252 312.5C252 369.5 252 355.5 252 355.5C252 355.5 260.5 350.5 282.5 328.5C304.5 306.5 308.425 289.5 313.5 255.5L314.321 250L328.5 155L252 142L252 215.5Z" fill="white" fill-opacity="0.85"/>
</svg>
